<mxfile host="Electron" modified="2024-02-05T19:45:38.966Z" agent="Mozilla/5.0 (Windows NT 10.0; Win64; x64) AppleWebKit/537.36 (KHTML, like Gecko) draw.io/23.0.2 Chrome/120.0.6099.109 Electron/28.1.0 Safari/537.36" etag="nizCKASqteAprYivn_KD" version="23.0.2" type="device">
  <diagram name="Page-1" id="S911AWhqQnQxeLxjynfL">
    <mxGraphModel dx="1195" dy="1797" grid="1" gridSize="10" guides="1" tooltips="1" connect="1" arrows="1" fold="1" page="1" pageScale="1" pageWidth="850" pageHeight="1100" math="0" shadow="0">
      <root>
        <mxCell id="0" />
        <mxCell id="1" parent="0" />
        <mxCell id="Qu_YVOTzmy-XQbYyuyUb-1" value="Glitch" style="rounded=0;whiteSpace=wrap;html=1;fillColor=#B3B3B3;fontColor=#333333;strokeColor=#000000;horizontal=0;" parent="1" vertex="1">
          <mxGeometry x="200" y="40" width="40" height="80" as="geometry" />
        </mxCell>
        <mxCell id="Qu_YVOTzmy-XQbYyuyUb-4" value="" style="endArrow=none;html=1;rounded=0;entryX=0;entryY=0;entryDx=0;entryDy=0;exitX=1;exitY=0;exitDx=0;exitDy=0;" parent="1" source="Qu_YVOTzmy-XQbYyuyUb-1" target="Qu_YVOTzmy-XQbYyuyUb-9" edge="1">
          <mxGeometry width="50" height="50" relative="1" as="geometry">
            <mxPoint x="250" y="40" as="sourcePoint" />
            <mxPoint x="360" y="40" as="targetPoint" />
          </mxGeometry>
        </mxCell>
        <mxCell id="Qu_YVOTzmy-XQbYyuyUb-5" value="" style="endArrow=none;html=1;rounded=0;exitX=1;exitY=1;exitDx=0;exitDy=0;" parent="1" source="Qu_YVOTzmy-XQbYyuyUb-9" edge="1">
          <mxGeometry width="50" height="50" relative="1" as="geometry">
            <mxPoint x="440" y="120" as="sourcePoint" />
            <mxPoint x="560" y="120" as="targetPoint" />
          </mxGeometry>
        </mxCell>
        <mxCell id="Qu_YVOTzmy-XQbYyuyUb-6" value="" style="endArrow=none;html=1;rounded=0;entryX=0;entryY=1;entryDx=0;entryDy=0;" parent="1" target="Qu_YVOTzmy-XQbYyuyUb-1" edge="1">
          <mxGeometry width="50" height="50" relative="1" as="geometry">
            <mxPoint x="120" y="120" as="sourcePoint" />
            <mxPoint x="200" y="120" as="targetPoint" />
          </mxGeometry>
        </mxCell>
        <mxCell id="Qu_YVOTzmy-XQbYyuyUb-9" value="Glitch" style="rounded=0;whiteSpace=wrap;html=1;fillColor=#B3B3B3;horizontal=0;" parent="1" vertex="1">
          <mxGeometry x="400" y="40" width="40" height="80" as="geometry" />
        </mxCell>
        <mxCell id="Qu_YVOTzmy-XQbYyuyUb-13" value="" style="edgeStyle=orthogonalEdgeStyle;rounded=0;orthogonalLoop=1;jettySize=auto;html=1;" parent="1" source="Qu_YVOTzmy-XQbYyuyUb-11" target="Qu_YVOTzmy-XQbYyuyUb-33" edge="1">
          <mxGeometry relative="1" as="geometry">
            <mxPoint x="580" y="480" as="targetPoint" />
          </mxGeometry>
        </mxCell>
        <mxCell id="Qu_YVOTzmy-XQbYyuyUb-21" value="glitch time up" style="edgeLabel;html=1;align=center;verticalAlign=middle;resizable=0;points=[];" parent="Qu_YVOTzmy-XQbYyuyUb-13" vertex="1" connectable="0">
          <mxGeometry x="-0.3048" y="2" relative="1" as="geometry">
            <mxPoint x="38" y="9" as="offset" />
          </mxGeometry>
        </mxCell>
        <mxCell id="Qu_YVOTzmy-XQbYyuyUb-11" value="&lt;div style=&quot;&quot;&gt;&lt;b style=&quot;border-color: var(--border-color);&quot;&gt;Pressed&lt;/b&gt;&lt;br&gt;&lt;/div&gt;1. disable ISR&lt;br&gt;2. start glitch timer&lt;br&gt;&lt;div style=&quot;&quot;&gt;&lt;span style=&quot;background-color: initial;&quot;&gt;3. start press timer&lt;/span&gt;&lt;/div&gt;" style="whiteSpace=wrap;html=1;fillColor=#ffe6cc;strokeColor=#d79b00;align=center;" parent="1" vertex="1">
          <mxGeometry x="500" y="360" width="160" height="80" as="geometry" />
        </mxCell>
        <mxCell id="Qu_YVOTzmy-XQbYyuyUb-17" value="" style="edgeStyle=orthogonalEdgeStyle;rounded=0;orthogonalLoop=1;jettySize=auto;html=1;" parent="1" source="Qu_YVOTzmy-XQbYyuyUb-33" target="Qu_YVOTzmy-XQbYyuyUb-16" edge="1">
          <mxGeometry relative="1" as="geometry">
            <mxPoint x="580" y="540" as="sourcePoint" />
          </mxGeometry>
        </mxCell>
        <mxCell id="Qu_YVOTzmy-XQbYyuyUb-18" value="n" style="edgeLabel;html=1;align=center;verticalAlign=middle;resizable=0;points=[];" parent="Qu_YVOTzmy-XQbYyuyUb-17" vertex="1" connectable="0">
          <mxGeometry x="-0.3048" y="1" relative="1" as="geometry">
            <mxPoint x="24" y="9" as="offset" />
          </mxGeometry>
        </mxCell>
        <mxCell id="Qu_YVOTzmy-XQbYyuyUb-29" value="" style="edgeStyle=orthogonalEdgeStyle;rounded=0;orthogonalLoop=1;jettySize=auto;html=1;" parent="1" source="Qu_YVOTzmy-XQbYyuyUb-33" target="Qu_YVOTzmy-XQbYyuyUb-28" edge="1">
          <mxGeometry relative="1" as="geometry">
            <mxPoint x="640" y="510" as="sourcePoint" />
          </mxGeometry>
        </mxCell>
        <mxCell id="Qu_YVOTzmy-XQbYyuyUb-30" value="y" style="edgeLabel;html=1;align=center;verticalAlign=middle;resizable=0;points=[];" parent="Qu_YVOTzmy-XQbYyuyUb-29" vertex="1" connectable="0">
          <mxGeometry x="-0.3036" y="1" relative="1" as="geometry">
            <mxPoint x="7" y="-9" as="offset" />
          </mxGeometry>
        </mxCell>
        <mxCell id="Qu_YVOTzmy-XQbYyuyUb-14" value="" style="endArrow=none;dashed=1;html=1;dashPattern=1 3;strokeWidth=2;rounded=0;" parent="1" edge="1">
          <mxGeometry width="50" height="50" relative="1" as="geometry">
            <mxPoint x="259.66" y="120" as="sourcePoint" />
            <mxPoint x="259.66" as="targetPoint" />
          </mxGeometry>
        </mxCell>
        <mxCell id="Qu_YVOTzmy-XQbYyuyUb-15" value="glitch timer up" style="text;html=1;align=center;verticalAlign=middle;resizable=0;points=[];autosize=1;strokeColor=none;fillColor=none;" parent="1" vertex="1">
          <mxGeometry x="160" y="-30" width="100" height="30" as="geometry" />
        </mxCell>
        <mxCell id="Qu_YVOTzmy-XQbYyuyUb-36" value="" style="edgeStyle=orthogonalEdgeStyle;rounded=0;orthogonalLoop=1;jettySize=auto;html=1;" parent="1" source="U8cSozepBEnA9NPqnX6W-5" target="Qu_YVOTzmy-XQbYyuyUb-35" edge="1">
          <mxGeometry relative="1" as="geometry" />
        </mxCell>
        <mxCell id="U8cSozepBEnA9NPqnX6W-7" value="y" style="edgeLabel;html=1;align=center;verticalAlign=middle;resizable=0;points=[];" vertex="1" connectable="0" parent="Qu_YVOTzmy-XQbYyuyUb-36">
          <mxGeometry x="-0.4952" y="-1" relative="1" as="geometry">
            <mxPoint as="offset" />
          </mxGeometry>
        </mxCell>
        <mxCell id="Qu_YVOTzmy-XQbYyuyUb-16" value="&lt;b&gt;Released&lt;/b&gt;&lt;br&gt;&lt;div style=&quot;&quot;&gt;&lt;span style=&quot;background-color: initial;&quot;&gt;1. disable ISR&lt;/span&gt;&lt;/div&gt;&lt;div style=&quot;&quot;&gt;&lt;span style=&quot;background-color: initial;&quot;&gt;2. stop press timer&lt;/span&gt;&lt;/div&gt;&lt;div style=&quot;&quot;&gt;&lt;span style=&quot;background-color: initial;&quot;&gt;3. start glitch timer&lt;/span&gt;&lt;/div&gt;" style="whiteSpace=wrap;html=1;fillColor=#d5e8d4;strokeColor=#82b366;align=center;" parent="1" vertex="1">
          <mxGeometry x="500" y="600" width="160" height="80" as="geometry" />
        </mxCell>
        <mxCell id="Qu_YVOTzmy-XQbYyuyUb-39" style="edgeStyle=orthogonalEdgeStyle;rounded=0;orthogonalLoop=1;jettySize=auto;html=1;entryX=1;entryY=0.5;entryDx=0;entryDy=0;" parent="1" source="Qu_YVOTzmy-XQbYyuyUb-19" target="Qu_YVOTzmy-XQbYyuyUb-23" edge="1">
          <mxGeometry relative="1" as="geometry">
            <Array as="points">
              <mxPoint x="780" y="990" />
            </Array>
          </mxGeometry>
        </mxCell>
        <mxCell id="Qu_YVOTzmy-XQbYyuyUb-19" value="set rising edge ITR" style="whiteSpace=wrap;html=1;fillColor=#d5e8d4;strokeColor=#82b366;" parent="1" vertex="1">
          <mxGeometry x="720" y="840" width="120" height="60" as="geometry" />
        </mxCell>
        <mxCell id="Qu_YVOTzmy-XQbYyuyUb-23" value="&lt;b&gt;Idle&lt;/b&gt;" style="whiteSpace=wrap;html=1;fillColor=#dae8fc;strokeColor=#6c8ebf;" parent="1" vertex="1">
          <mxGeometry x="520" y="960" width="120" height="60" as="geometry" />
        </mxCell>
        <mxCell id="Qu_YVOTzmy-XQbYyuyUb-26" value="" style="edgeStyle=orthogonalEdgeStyle;rounded=0;orthogonalLoop=1;jettySize=auto;html=1;" parent="1" source="Qu_YVOTzmy-XQbYyuyUb-25" target="Qu_YVOTzmy-XQbYyuyUb-11" edge="1">
          <mxGeometry relative="1" as="geometry" />
        </mxCell>
        <mxCell id="Qu_YVOTzmy-XQbYyuyUb-27" value="rising edge" style="edgeLabel;html=1;align=center;verticalAlign=middle;resizable=0;points=[];" parent="Qu_YVOTzmy-XQbYyuyUb-26" vertex="1" connectable="0">
          <mxGeometry x="-0.4889" y="-2" relative="1" as="geometry">
            <mxPoint x="2" y="15" as="offset" />
          </mxGeometry>
        </mxCell>
        <mxCell id="Qu_YVOTzmy-XQbYyuyUb-25" value="&lt;b&gt;Idle&lt;/b&gt;" style="whiteSpace=wrap;html=1;fillColor=#dae8fc;strokeColor=#6c8ebf;" parent="1" vertex="1">
          <mxGeometry x="520" y="240" width="120" height="60" as="geometry" />
        </mxCell>
        <mxCell id="Qu_YVOTzmy-XQbYyuyUb-31" style="edgeStyle=orthogonalEdgeStyle;rounded=0;orthogonalLoop=1;jettySize=auto;html=1;entryX=1;entryY=0.5;entryDx=0;entryDy=0;" parent="1" source="Qu_YVOTzmy-XQbYyuyUb-28" target="Qu_YVOTzmy-XQbYyuyUb-16" edge="1">
          <mxGeometry relative="1" as="geometry">
            <Array as="points">
              <mxPoint x="780" y="640" />
            </Array>
          </mxGeometry>
        </mxCell>
        <mxCell id="Qu_YVOTzmy-XQbYyuyUb-34" value="falling edge" style="edgeLabel;html=1;align=center;verticalAlign=middle;resizable=0;points=[];" parent="Qu_YVOTzmy-XQbYyuyUb-31" vertex="1" connectable="0">
          <mxGeometry x="-0.7044" y="-1" relative="1" as="geometry">
            <mxPoint as="offset" />
          </mxGeometry>
        </mxCell>
        <mxCell id="Qu_YVOTzmy-XQbYyuyUb-28" value="&lt;b&gt;Pressed&lt;/b&gt;&lt;br&gt;set falling edge ITR" style="whiteSpace=wrap;html=1;fillColor=#ffe6cc;strokeColor=#d79b00;" parent="1" vertex="1">
          <mxGeometry x="720" y="480" width="120" height="60" as="geometry" />
        </mxCell>
        <mxCell id="Qu_YVOTzmy-XQbYyuyUb-33" value="pin state is HIGH" style="rhombus;whiteSpace=wrap;html=1;fillColor=#ffe6cc;strokeColor=#d79b00;" parent="1" vertex="1">
          <mxGeometry x="520" y="480" width="120" height="60" as="geometry" />
        </mxCell>
        <mxCell id="Qu_YVOTzmy-XQbYyuyUb-37" style="edgeStyle=orthogonalEdgeStyle;rounded=0;orthogonalLoop=1;jettySize=auto;html=1;" parent="1" source="Qu_YVOTzmy-XQbYyuyUb-35" target="Qu_YVOTzmy-XQbYyuyUb-19" edge="1">
          <mxGeometry relative="1" as="geometry" />
        </mxCell>
        <mxCell id="Qu_YVOTzmy-XQbYyuyUb-38" value="y" style="edgeLabel;html=1;align=center;verticalAlign=middle;resizable=0;points=[];" parent="Qu_YVOTzmy-XQbYyuyUb-37" vertex="1" connectable="0">
          <mxGeometry x="-0.2321" relative="1" as="geometry">
            <mxPoint as="offset" />
          </mxGeometry>
        </mxCell>
        <mxCell id="Qu_YVOTzmy-XQbYyuyUb-40" value="" style="edgeStyle=orthogonalEdgeStyle;rounded=0;orthogonalLoop=1;jettySize=auto;html=1;" parent="1" source="Qu_YVOTzmy-XQbYyuyUb-35" target="Qu_YVOTzmy-XQbYyuyUb-23" edge="1">
          <mxGeometry relative="1" as="geometry" />
        </mxCell>
        <mxCell id="Qu_YVOTzmy-XQbYyuyUb-41" value="n" style="edgeLabel;html=1;align=center;verticalAlign=middle;resizable=0;points=[];" parent="Qu_YVOTzmy-XQbYyuyUb-40" vertex="1" connectable="0">
          <mxGeometry x="-0.3238" relative="1" as="geometry">
            <mxPoint x="10" as="offset" />
          </mxGeometry>
        </mxCell>
        <mxCell id="Qu_YVOTzmy-XQbYyuyUb-35" value="pin state is LOW" style="rhombus;whiteSpace=wrap;html=1;fillColor=#d5e8d4;strokeColor=#82b366;" parent="1" vertex="1">
          <mxGeometry x="520" y="840" width="120" height="60" as="geometry" />
        </mxCell>
        <mxCell id="Qu_YVOTzmy-XQbYyuyUb-42" value="" style="endArrow=none;dashed=1;html=1;dashPattern=1 3;strokeWidth=2;rounded=0;" parent="1" edge="1">
          <mxGeometry width="50" height="50" relative="1" as="geometry">
            <mxPoint x="460" y="120" as="sourcePoint" />
            <mxPoint x="460" as="targetPoint" />
          </mxGeometry>
        </mxCell>
        <mxCell id="Qu_YVOTzmy-XQbYyuyUb-43" value="glitch timer up" style="text;html=1;align=center;verticalAlign=middle;resizable=0;points=[];autosize=1;strokeColor=none;fillColor=none;" parent="1" vertex="1">
          <mxGeometry x="440" y="-30" width="100" height="30" as="geometry" />
        </mxCell>
        <mxCell id="Qu_YVOTzmy-XQbYyuyUb-48" value="Pressed" style="rounded=0;whiteSpace=wrap;html=1;fillColor=#ffe6cc;strokeColor=#d79b00;" parent="1" vertex="1">
          <mxGeometry x="200" y="140" width="200" height="20" as="geometry" />
        </mxCell>
        <mxCell id="Qu_YVOTzmy-XQbYyuyUb-49" value="Released" style="rounded=0;whiteSpace=wrap;html=1;fillColor=#d5e8d4;strokeColor=#82b366;" parent="1" vertex="1">
          <mxGeometry x="400" y="140" width="80" height="20" as="geometry" />
        </mxCell>
        <mxCell id="Qu_YVOTzmy-XQbYyuyUb-50" value="idle" style="rounded=0;whiteSpace=wrap;html=1;fillColor=#dae8fc;strokeColor=#6c8ebf;" parent="1" vertex="1">
          <mxGeometry x="480" y="140" width="80" height="20" as="geometry" />
        </mxCell>
        <mxCell id="Qu_YVOTzmy-XQbYyuyUb-51" value="idle" style="rounded=0;whiteSpace=wrap;html=1;fillColor=#dae8fc;strokeColor=#6c8ebf;" parent="1" vertex="1">
          <mxGeometry x="120" y="140" width="80" height="20" as="geometry" />
        </mxCell>
        <mxCell id="Qu_YVOTzmy-XQbYyuyUb-52" value="Debounce" style="text;html=1;align=center;verticalAlign=middle;resizable=0;points=[];autosize=1;strokeColor=none;fillColor=none;fontStyle=1" parent="1" vertex="1">
          <mxGeometry x="540" y="180" width="80" height="30" as="geometry" />
        </mxCell>
        <mxCell id="U8cSozepBEnA9NPqnX6W-12" value="" style="edgeStyle=orthogonalEdgeStyle;rounded=0;orthogonalLoop=1;jettySize=auto;html=1;exitX=1;exitY=0.25;exitDx=0;exitDy=0;entryX=0;entryY=0.25;entryDx=0;entryDy=0;" edge="1" parent="1" source="Qu_YVOTzmy-XQbYyuyUb-28" target="U8cSozepBEnA9NPqnX6W-1">
          <mxGeometry relative="1" as="geometry">
            <mxPoint x="980" y="420" as="sourcePoint" />
          </mxGeometry>
        </mxCell>
        <mxCell id="U8cSozepBEnA9NPqnX6W-14" value="press timer up" style="edgeLabel;html=1;align=center;verticalAlign=middle;resizable=0;points=[];" vertex="1" connectable="0" parent="U8cSozepBEnA9NPqnX6W-12">
          <mxGeometry x="0.1846" relative="1" as="geometry">
            <mxPoint x="-7" y="-15" as="offset" />
          </mxGeometry>
        </mxCell>
        <mxCell id="U8cSozepBEnA9NPqnX6W-16" style="edgeStyle=orthogonalEdgeStyle;rounded=0;orthogonalLoop=1;jettySize=auto;html=1;exitX=0;exitY=0.75;exitDx=0;exitDy=0;entryX=1;entryY=0.75;entryDx=0;entryDy=0;" edge="1" parent="1" source="U8cSozepBEnA9NPqnX6W-1" target="Qu_YVOTzmy-XQbYyuyUb-28">
          <mxGeometry relative="1" as="geometry" />
        </mxCell>
        <mxCell id="U8cSozepBEnA9NPqnX6W-1" value="signal long press" style="whiteSpace=wrap;html=1;fillColor=#ffe6cc;strokeColor=#d79b00;" vertex="1" parent="1">
          <mxGeometry x="920" y="480" width="120" height="60" as="geometry" />
        </mxCell>
        <mxCell id="U8cSozepBEnA9NPqnX6W-6" value="" style="edgeStyle=orthogonalEdgeStyle;rounded=0;orthogonalLoop=1;jettySize=auto;html=1;" edge="1" parent="1" source="Qu_YVOTzmy-XQbYyuyUb-16" target="U8cSozepBEnA9NPqnX6W-5">
          <mxGeometry relative="1" as="geometry">
            <mxPoint x="580" y="680" as="sourcePoint" />
            <mxPoint x="580" y="840" as="targetPoint" />
          </mxGeometry>
        </mxCell>
        <mxCell id="U8cSozepBEnA9NPqnX6W-9" value="" style="edgeStyle=orthogonalEdgeStyle;rounded=0;orthogonalLoop=1;jettySize=auto;html=1;" edge="1" parent="1" source="U8cSozepBEnA9NPqnX6W-5" target="U8cSozepBEnA9NPqnX6W-8">
          <mxGeometry relative="1" as="geometry" />
        </mxCell>
        <mxCell id="U8cSozepBEnA9NPqnX6W-10" value="n" style="edgeLabel;html=1;align=center;verticalAlign=middle;resizable=0;points=[];" vertex="1" connectable="0" parent="U8cSozepBEnA9NPqnX6W-9">
          <mxGeometry x="-0.3036" y="-1" relative="1" as="geometry">
            <mxPoint x="2" y="-11" as="offset" />
          </mxGeometry>
        </mxCell>
        <mxCell id="U8cSozepBEnA9NPqnX6W-5" value="press timer up" style="rhombus;whiteSpace=wrap;html=1;fillColor=#d5e8d4;strokeColor=#82b366;" vertex="1" parent="1">
          <mxGeometry x="520" y="720" width="120" height="60" as="geometry" />
        </mxCell>
        <mxCell id="U8cSozepBEnA9NPqnX6W-11" style="edgeStyle=orthogonalEdgeStyle;rounded=0;orthogonalLoop=1;jettySize=auto;html=1;entryX=0.5;entryY=0;entryDx=0;entryDy=0;" edge="1" parent="1" source="U8cSozepBEnA9NPqnX6W-8" target="Qu_YVOTzmy-XQbYyuyUb-35">
          <mxGeometry relative="1" as="geometry">
            <Array as="points">
              <mxPoint x="780" y="820" />
              <mxPoint x="580" y="820" />
            </Array>
          </mxGeometry>
        </mxCell>
        <mxCell id="U8cSozepBEnA9NPqnX6W-8" value="signal short press" style="whiteSpace=wrap;html=1;fillColor=#d5e8d4;strokeColor=#82b366;" vertex="1" parent="1">
          <mxGeometry x="720" y="720" width="120" height="60" as="geometry" />
        </mxCell>
        <mxCell id="U8cSozepBEnA9NPqnX6W-18" value="" style="endArrow=none;dashed=1;html=1;dashPattern=1 3;strokeWidth=2;rounded=0;" edge="1" parent="1">
          <mxGeometry width="50" height="50" relative="1" as="geometry">
            <mxPoint x="350" y="120" as="sourcePoint" />
            <mxPoint x="350" as="targetPoint" />
          </mxGeometry>
        </mxCell>
        <mxCell id="U8cSozepBEnA9NPqnX6W-19" value="&lt;span style=&quot;color: rgb(0, 0, 0); font-family: Helvetica; font-size: 12px; font-style: normal; font-variant-ligatures: normal; font-variant-caps: normal; font-weight: 400; letter-spacing: normal; orphans: 2; text-align: center; text-indent: 0px; text-transform: none; widows: 2; word-spacing: 0px; -webkit-text-stroke-width: 0px; background-color: rgb(251, 251, 251); text-decoration-thickness: initial; text-decoration-style: initial; text-decoration-color: initial; float: none; display: inline !important;&quot;&gt;press timer up&lt;/span&gt;" style="text;whiteSpace=wrap;html=1;" vertex="1" parent="1">
          <mxGeometry x="310" y="-35" width="110" height="40" as="geometry" />
        </mxCell>
      </root>
    </mxGraphModel>
  </diagram>
</mxfile>
